<svg width="75" height="75" viewBox="0 0 75 75" fill="none" xmlns="http://www.w3.org/2000/svg">
<path d="M69.875 32.875H42.125V5.12498C42.125 3.89836 41.6377 2.72197 40.7704 1.85462C39.903 0.987261 38.7266 0.499985 37.5 0.499985C36.2734 0.499985 35.097 0.987261 34.2296 1.85462C33.3623 2.72197 32.875 3.89836 32.875 5.12498V32.875H5.125C3.89837 32.875 2.72199 33.3623 1.85463 34.2296C0.987276 35.097 0.5 36.2734 0.5 37.5C0.5 38.7266 0.987276 39.903 1.85463 40.7703C2.72199 41.6377 3.89837 42.125 5.125 42.125H32.875V69.875C32.875 71.1016 33.3623 72.278 34.2296 73.1453C35.097 74.0127 36.2734 74.5 37.5 74.5C38.7266 74.5 39.903 74.0127 40.7704 73.1453C41.6377 72.278 42.125 71.1016 42.125 69.875V42.125H69.875C71.1016 42.125 72.278 41.6377 73.1454 40.7703C74.0127 39.903 74.5 38.7266 74.5 37.5C74.5 36.2734 74.0127 35.097 73.1454 34.2296C72.278 33.3623 71.1016 32.875 69.875 32.875Z" fill="#ADF385"/>
</svg>
