<svg width="81" height="78" viewBox="0 0 81 78" fill="none" xmlns="http://www.w3.org/2000/svg">
<path d="M33.2773 58.0454C32.8145 58.044 32.357 57.9516 31.9332 57.7741C31.5093 57.5966 31.1282 57.3377 30.8136 57.0135L14.4111 40.3416C13.7979 39.7172 13.4694 38.8857 13.4979 38.03C13.5264 37.1743 13.9095 36.3644 14.5629 35.7785C15.2164 35.1927 16.0866 34.8789 16.9822 34.9061C17.8778 34.9333 18.7254 35.2993 19.3386 35.9237L33.2436 50.0803L61.6273 20.4126C61.9153 20.0699 62.2737 19.7871 62.6803 19.5815C63.0869 19.3759 63.5332 19.2519 63.9918 19.2172C64.4504 19.1824 64.9116 19.2375 65.347 19.3793C65.7825 19.521 66.183 19.7463 66.524 20.0413C66.865 20.3363 67.1393 20.6948 67.3301 21.0948C67.5208 21.4948 67.6239 21.9278 67.6331 22.3673C67.6423 22.8067 67.5574 23.2434 67.3836 23.6503C67.2098 24.0573 66.9507 24.426 66.6223 24.7338L35.7748 56.9812C35.4631 57.3113 35.0833 57.5762 34.6593 57.7594C34.2353 57.9425 33.7763 58.0399 33.311 58.0454H33.2773Z" fill="#231F20"/>
</svg>
