<svg width="12" height="12" viewBox="0 0 12 12" fill="none" xmlns="http://www.w3.org/2000/svg">
<path d="M7.50901 6.1938L11.5201 2.19201C11.6958 2.01636 11.7945 1.77812 11.7945 1.52971C11.7945 1.2813 11.6958 1.04307 11.5201 0.867412C11.3445 0.691759 11.1062 0.593079 10.8578 0.593079C10.6094 0.593079 10.3712 0.691759 10.1955 0.867412L6.19374 4.87853L2.19196 0.867412C2.0163 0.691759 1.77807 0.593079 1.52966 0.593079C1.28125 0.593079 1.04301 0.691759 0.867356 0.867412C0.691703 1.04307 0.593023 1.2813 0.593023 1.52971C0.593023 1.77812 0.691703 2.01636 0.867356 2.19201L4.87847 6.1938L0.867356 10.1956C0.779925 10.2823 0.710529 10.3855 0.663171 10.4991C0.615813 10.6128 0.591431 10.7347 0.591431 10.8579C0.591431 10.981 0.615813 11.1029 0.663171 11.2166C0.710529 11.3303 0.779925 11.4335 0.867356 11.5202C0.954074 11.6076 1.05724 11.677 1.17092 11.7244C1.28459 11.7717 1.40651 11.7961 1.52966 11.7961C1.6528 11.7961 1.77472 11.7717 1.8884 11.7244C2.00207 11.677 2.10524 11.6076 2.19196 11.5202L6.19374 7.50907L10.1955 11.5202C10.2822 11.6076 10.3854 11.677 10.4991 11.7244C10.6128 11.7717 10.7347 11.7961 10.8578 11.7961C10.981 11.7961 11.1029 11.7717 11.2166 11.7244C11.3302 11.677 11.4334 11.6076 11.5201 11.5202C11.6076 11.4335 11.677 11.3303 11.7243 11.2166C11.7717 11.1029 11.7961 10.981 11.7961 10.8579C11.7961 10.7347 11.7717 10.6128 11.7243 10.4991C11.677 10.3855 11.6076 10.2823 11.5201 10.1956L7.50901 6.1938Z" fill="#ADF385" fill-opacity="0.54"/>
</svg>
